{"title":"Paul 2011 CAM XviD Feel-Free","uid":6185735,"size":725981805,"categoryP":"video","categoryS":"movies","magnet":"?xt=urn:btih:af45f38e5438135821927486e9b6f10f9af4a086&amp;dn=Paul+2011+CAM+XviD+Feel-Free&amp;tr=udp%3A%2F%2Ftracker.openbittorrent.com%3A80&amp;tr=udp%3A%2F%2Fopen.demonii.com%3A1337&amp;tr=udp%3A%2F%2Ftracker.coppersurfer.tk%3A6969&amp;tr=udp%3A%2F%2Fexodus.desync.com%3A6969","seeders":1,"leechers":0,"uploader":"hiest","files":-1,"time":1298104550,"description":"Genre:Comedy | Sci-Fi \nLanguage:English\nIMDb:http://www.imdb.com/title/tt1092026/\nSource:TaRiQ786/Imagine Thx.\n\nFormat : AVI\nFormat/Info : Audio Video Interleave\nFile size : 690 MiB\nDuration : 1h 35mn\nOverall bit rate : 1 012 Kbps\n\nVideo\nCodec ID/Hint : XviD\nDuration : 1h 35mn\nBit rate : 874 Kbps\nWidth : 720 pixels\nHeight : 304 pixels\nDisplay aspect ratio : 2.35:1\nFrame rate : 25.000 fps\nColor space : YUV\nChroma subsampling : 4:2:0\nBit depth : 8 bits\nScan type : Progressive\nBits/(Pixel*Frame) : 0.160\nStream size : 596 MiB (86%)\nWriting library : XviD 1.2.1 (UTC 2008-12-04)\n\nAudio\nID : 1\nFormat : MPEG Audio\nFormat version : Version 1\nFormat profile : Layer 3\nCodec ID : 55\nCodec ID/Hint : MP3\nDuration : 1h 35mn\nBit rate mode : Constant\nBit rate : 128 Kbps\nChannel(s) : 2 channels\nSampling rate : 44.1 KHz\nStream size : 87.3 MiB (13%)\nAlignment : Split accross interleaves\nInterleave, duration : 40 ms (1.00 video frame)\nInterleave, preload duration : 500 ms\n\n\nPlot:\nTwo British comic-book geeks traveling across the U.S. encounter an alien outside Area 51\n\n\n\n\n\n================================== &lt;a href=&quot;\nhttp://thepiratebay.se/user/hiest&quot; rel=&quot;nofollow&quot; target=&quot;_NEW&quot;&gt;\nhttp://thepiratebay.se/user/hiest&lt;/a&gt;\n==================================","torrent":{"xt":"urn:btih:af45f38e5438135821927486e9b6f10f9af4a086","amp;dn":"Paul+2011+CAM+XviD+Feel-Free","amp;tr":["udp%3A%2F%2Ftracker.openbittorrent.com%3A80","udp%3A%2F%2Fopen.demonii.com%3A1337","udp%3A%2F%2Ftracker.coppersurfer.tk%3A6969","udp%3A%2F%2Fexodus.desync.com%3A6969"],"infoHash":"af45f38e5438135821927486e9b6f10f9af4a086","infoHashBuffer":{"type":"Buffer","data":[175,69,243,142,84,56,19,88,33,146,116,134,233,182,241,15,154,244,160,134]},"announce":[],"urlList":[]}}